<svg width="459" height="58" viewBox="0 0 459 58" fill="none" xmlns="http://www.w3.org/2000/svg">
<g clip-path="url(#clip0_2_329)">
<g filter="url(#filter0_d_2_329)">
<rect width="459" height="58" rx="29" fill="white"/>
</g>
<path d="M81.184 24.72L77.488 31.728V36H76.016V31.728L72.304 24.72H74L76.768 30.176L79.52 24.72H81.184ZM86.6364 27.104C87.479 27.104 88.231 27.2853 88.8924 27.648C89.5644 28.0107 90.087 28.5333 90.4604 29.216C90.8444 29.8987 91.0364 30.6987 91.0364 31.616C91.0364 32.5333 90.8444 33.3333 90.4604 34.016C90.087 34.688 89.5644 35.2053 88.8924 35.568C88.231 35.9307 87.479 36.112 86.6364 36.112C85.7937 36.112 85.0364 35.9307 84.3644 35.568C83.703 35.2053 83.1804 34.688 82.7964 34.016C82.4124 33.3333 82.2204 32.5333 82.2204 31.616C82.2204 30.6987 82.4124 29.8987 82.7964 29.216C83.1804 28.5333 83.703 28.0107 84.3644 27.648C85.0364 27.2853 85.7937 27.104 86.6364 27.104ZM86.6364 28.384C86.1137 28.384 85.6284 28.5013 85.1804 28.736C84.743 28.9707 84.3857 29.3333 84.1084 29.824C83.8417 30.304 83.7084 30.9013 83.7084 31.616C83.7084 32.32 83.8417 32.9173 84.1084 33.408C84.3857 33.888 84.743 34.2453 85.1804 34.48C85.6284 34.7147 86.1137 34.832 86.6364 34.832C87.159 34.832 87.639 34.7147 88.0764 34.48C88.5244 34.2453 88.8817 33.888 89.1484 33.408C89.4257 32.9173 89.5644 32.32 89.5644 31.616C89.5644 30.9013 89.4257 30.304 89.1484 29.824C88.8817 29.3333 88.5244 28.9707 88.0764 28.736C87.639 28.5013 87.159 28.384 86.6364 28.384ZM100.742 27.216V36H99.2856V33.936C99.0616 34.6507 98.6616 35.2 98.0856 35.584C97.5203 35.9573 96.859 36.144 96.1016 36.144C95.0883 36.144 94.267 35.8187 93.6376 35.168C93.0083 34.5067 92.6936 33.5627 92.6936 32.336V27.216H94.1496V32.192C94.1496 33.0667 94.3736 33.744 94.8216 34.224C95.2696 34.6933 95.8776 34.928 96.6456 34.928C97.4456 34.928 98.0856 34.672 98.5656 34.16C99.0456 33.6373 99.2856 32.88 99.2856 31.888V27.216H100.742ZM104.53 28.992C104.818 28.384 105.24 27.9147 105.794 27.584C106.349 27.2427 107.01 27.072 107.778 27.072V28.656H107.33C106.509 28.656 105.837 28.8693 105.314 29.296C104.792 29.712 104.53 30.4053 104.53 31.376V36H103.074V27.216H104.53V28.992ZM121.248 31.12C121.248 31.4293 121.227 31.696 121.184 31.92H114.16C114.192 32.9227 114.475 33.6747 115.008 34.176C115.552 34.6773 116.213 34.928 116.992 34.928C117.696 34.928 118.283 34.752 118.752 34.4C119.232 34.0373 119.525 33.5573 119.632 32.96H121.184C121.077 33.568 120.837 34.112 120.464 34.592C120.101 35.072 119.627 35.4453 119.04 35.712C118.453 35.9787 117.792 36.112 117.056 36.112C116.213 36.112 115.467 35.9307 114.816 35.568C114.165 35.2053 113.653 34.688 113.28 34.016C112.917 33.3333 112.736 32.5333 112.736 31.616C112.736 30.6987 112.917 29.8987 113.28 29.216C113.653 28.5333 114.165 28.0107 114.816 27.648C115.467 27.2853 116.213 27.104 117.056 27.104C117.909 27.104 118.651 27.2853 119.28 27.648C119.92 28.0107 120.405 28.496 120.736 29.104C121.077 29.712 121.248 30.384 121.248 31.12ZM119.776 31.216C119.808 30.5653 119.701 30.0213 119.456 29.584C119.211 29.1467 118.875 28.8213 118.448 28.608C118.021 28.3947 117.557 28.288 117.056 28.288C116.256 28.288 115.584 28.5387 115.04 29.04C114.496 29.5307 114.203 30.256 114.16 31.216H119.776ZM133.952 27.072C134.976 27.072 135.798 27.4027 136.416 28.064C137.046 28.7147 137.36 29.6587 137.36 30.896V36H135.904V31.024C135.904 30.16 135.691 29.4987 135.264 29.04C134.848 28.5813 134.272 28.352 133.536 28.352C132.768 28.352 132.15 28.608 131.68 29.12C131.222 29.6213 130.992 30.3627 130.992 31.344V36H129.536V31.024C129.536 30.16 129.323 29.4987 128.896 29.04C128.47 28.5813 127.894 28.352 127.168 28.352C126.39 28.352 125.766 28.608 125.296 29.12C124.838 29.6213 124.608 30.3627 124.608 31.344V36H123.152V27.216H124.608V29.216C124.822 28.5227 125.2 27.9947 125.744 27.632C126.299 27.2587 126.934 27.072 127.648 27.072C128.395 27.072 129.04 27.264 129.584 27.648C130.139 28.0213 130.534 28.576 130.768 29.312C131.014 28.5973 131.424 28.048 132 27.664C132.576 27.2693 133.227 27.072 133.952 27.072ZM143.221 27.104C144.074 27.104 144.794 27.3173 145.381 27.744C145.978 28.1707 146.394 28.7413 146.629 29.456V27.216H148.085V36H146.629V33.76C146.394 34.4747 145.978 35.0453 145.381 35.472C144.794 35.8987 144.074 36.112 143.221 36.112C142.442 36.112 141.749 35.9307 141.141 35.568C140.533 35.2053 140.053 34.688 139.701 34.016C139.36 33.3333 139.189 32.5333 139.189 31.616C139.189 30.6987 139.36 29.8987 139.701 29.216C140.053 28.5333 140.533 28.0107 141.141 27.648C141.749 27.2853 142.442 27.104 143.221 27.104ZM143.637 28.4C142.741 28.4 142.021 28.688 141.477 29.264C140.944 29.8293 140.677 30.6133 140.677 31.616C140.677 32.6187 140.944 33.408 141.477 33.984C142.021 34.5493 142.741 34.832 143.637 34.832C144.213 34.832 144.725 34.6987 145.173 34.432C145.632 34.1653 145.989 33.792 146.245 33.312C146.501 32.8213 146.629 32.256 146.629 31.616C146.629 30.976 146.501 30.4107 146.245 29.92C145.989 29.4293 145.632 29.056 145.173 28.8C144.725 28.5333 144.213 28.4 143.637 28.4ZM150.146 24.64C150.146 24.3733 150.237 24.16 150.418 24C150.6 23.8293 150.84 23.744 151.138 23.744C151.437 23.744 151.677 23.8293 151.858 24C152.04 24.16 152.13 24.3733 152.13 24.64C152.13 24.9067 152.04 25.1253 151.858 25.296C151.677 25.456 151.437 25.536 151.138 25.536C150.84 25.536 150.6 25.456 150.418 25.296C150.237 25.1253 150.146 24.9067 150.146 24.64ZM151.858 27.216V36H150.402V27.216H151.858ZM155.655 24.16V36H154.199V24.16H155.655ZM165.549 27.104C166.403 27.104 167.123 27.3173 167.709 27.744C168.307 28.1707 168.723 28.7413 168.957 29.456V27.216H170.413V36H168.957V33.76C168.723 34.4747 168.307 35.0453 167.709 35.472C167.123 35.8987 166.403 36.112 165.549 36.112C164.771 36.112 164.077 35.9307 163.469 35.568C162.861 35.2053 162.381 34.688 162.029 34.016C161.688 33.3333 161.517 32.5333 161.517 31.616C161.517 30.6987 161.688 29.8987 162.029 29.216C162.381 28.5333 162.861 28.0107 163.469 27.648C164.077 27.2853 164.771 27.104 165.549 27.104ZM165.965 28.4C165.069 28.4 164.349 28.688 163.805 29.264C163.272 29.8293 163.005 30.6133 163.005 31.616C163.005 32.6187 163.272 33.408 163.805 33.984C164.349 34.5493 165.069 34.832 165.965 34.832C166.541 34.832 167.053 34.6987 167.501 34.432C167.96 34.1653 168.317 33.792 168.573 33.312C168.829 32.8213 168.957 32.256 168.957 31.616C168.957 30.976 168.829 30.4107 168.573 29.92C168.317 29.4293 167.96 29.056 167.501 28.8C167.053 28.5333 166.541 28.4 165.965 28.4ZM176.331 27.104C177.184 27.104 177.904 27.3173 178.491 27.744C179.088 28.1707 179.504 28.7413 179.739 29.456V24.16H181.195V36H179.739V33.76C179.504 34.4747 179.088 35.0453 178.491 35.472C177.904 35.8987 177.184 36.112 176.331 36.112C175.552 36.112 174.859 35.9307 174.251 35.568C173.643 35.2053 173.163 34.688 172.811 34.016C172.469 33.3333 172.299 32.5333 172.299 31.616C172.299 30.6987 172.469 29.8987 172.811 29.216C173.163 28.5333 173.643 28.0107 174.251 27.648C174.859 27.2853 175.552 27.104 176.331 27.104ZM176.747 28.4C175.851 28.4 175.131 28.688 174.587 29.264C174.053 29.8293 173.787 30.6133 173.787 31.616C173.787 32.6187 174.053 33.408 174.587 33.984C175.131 34.5493 175.851 34.832 176.747 34.832C177.323 34.832 177.835 34.6987 178.283 34.432C178.741 34.1653 179.099 33.792 179.355 33.312C179.611 32.8213 179.739 32.256 179.739 31.616C179.739 30.976 179.611 30.4107 179.355 29.92C179.099 29.4293 178.741 29.056 178.283 28.8C177.835 28.5333 177.323 28.4 176.747 28.4ZM187.112 27.104C187.965 27.104 188.685 27.3173 189.272 27.744C189.869 28.1707 190.285 28.7413 190.52 29.456V24.16H191.976V36H190.52V33.76C190.285 34.4747 189.869 35.0453 189.272 35.472C188.685 35.8987 187.965 36.112 187.112 36.112C186.333 36.112 185.64 35.9307 185.032 35.568C184.424 35.2053 183.944 34.688 183.592 34.016C183.25 33.3333 183.08 32.5333 183.08 31.616C183.08 30.6987 183.25 29.8987 183.592 29.216C183.944 28.5333 184.424 28.0107 185.032 27.648C185.64 27.2853 186.333 27.104 187.112 27.104ZM187.528 28.4C186.632 28.4 185.912 28.688 185.368 29.264C184.834 29.8293 184.568 30.6133 184.568 31.616C184.568 32.6187 184.834 33.408 185.368 33.984C185.912 34.5493 186.632 34.832 187.528 34.832C188.104 34.832 188.616 34.6987 189.064 34.432C189.522 34.1653 189.88 33.792 190.136 33.312C190.392 32.8213 190.52 32.256 190.52 31.616C190.52 30.976 190.392 30.4107 190.136 29.92C189.88 29.4293 189.522 29.056 189.064 28.8C188.616 28.5333 188.104 28.4 187.528 28.4ZM195.749 28.992C196.037 28.384 196.458 27.9147 197.013 27.584C197.568 27.2427 198.229 27.072 198.997 27.072V28.656H198.549C197.728 28.656 197.056 28.8693 196.533 29.296C196.01 29.712 195.749 30.4053 195.749 31.376V36H194.293V27.216H195.749V28.992ZM208.514 31.12C208.514 31.4293 208.492 31.696 208.45 31.92H201.426C201.458 32.9227 201.74 33.6747 202.274 34.176C202.818 34.6773 203.479 34.928 204.258 34.928C204.962 34.928 205.548 34.752 206.018 34.4C206.498 34.0373 206.791 33.5573 206.898 32.96H208.45C208.343 33.568 208.103 34.112 207.73 34.592C207.367 35.072 206.892 35.4453 206.306 35.712C205.719 35.9787 205.058 36.112 204.322 36.112C203.479 36.112 202.732 35.9307 202.082 35.568C201.431 35.2053 200.919 34.688 200.546 34.016C200.183 33.3333 200.002 32.5333 200.002 31.616C200.002 30.6987 200.183 29.8987 200.546 29.216C200.919 28.5333 201.431 28.0107 202.082 27.648C202.732 27.2853 203.479 27.104 204.322 27.104C205.175 27.104 205.916 27.2853 206.546 27.648C207.186 28.0107 207.671 28.496 208.002 29.104C208.343 29.712 208.514 30.384 208.514 31.12ZM207.042 31.216C207.074 30.5653 206.967 30.0213 206.722 29.584C206.476 29.1467 206.14 28.8213 205.714 28.608C205.287 28.3947 204.823 28.288 204.322 28.288C203.522 28.288 202.85 28.5387 202.306 29.04C201.762 29.5307 201.468 30.256 201.426 31.216H207.042ZM213.17 27.104C214.162 27.104 214.957 27.3653 215.554 27.888C216.162 28.4 216.53 29.0933 216.658 29.968H215.266C215.202 29.4453 214.983 29.0187 214.61 28.688C214.247 28.3467 213.757 28.176 213.138 28.176C212.615 28.176 212.205 28.304 211.906 28.56C211.618 28.8053 211.474 29.1413 211.474 29.568C211.474 29.888 211.57 30.1493 211.762 30.352C211.965 30.544 212.21 30.6933 212.498 30.8C212.797 30.896 213.202 31.0027 213.714 31.12C214.365 31.2693 214.887 31.424 215.282 31.584C215.687 31.7333 216.029 31.9787 216.306 32.32C216.594 32.6613 216.738 33.12 216.738 33.696C216.738 34.4107 216.466 34.992 215.922 35.44C215.389 35.888 214.674 36.112 213.778 36.112C212.733 36.112 211.879 35.8613 211.218 35.36C210.557 34.8587 210.167 34.16 210.05 33.264H211.458C211.511 33.7973 211.741 34.2293 212.146 34.56C212.562 34.8907 213.106 35.056 213.778 35.056C214.279 35.056 214.669 34.928 214.946 34.672C215.234 34.416 215.378 34.08 215.378 33.664C215.378 33.3227 215.277 33.0507 215.074 32.848C214.871 32.6453 214.621 32.4907 214.322 32.384C214.023 32.2773 213.613 32.1653 213.09 32.048C212.439 31.8987 211.917 31.7493 211.522 31.6C211.138 31.4507 210.807 31.216 210.53 30.896C210.263 30.5653 210.13 30.1227 210.13 29.568C210.13 28.832 210.402 28.24 210.946 27.792C211.49 27.3333 212.231 27.104 213.17 27.104ZM221.436 27.104C222.428 27.104 223.222 27.3653 223.82 27.888C224.428 28.4 224.796 29.0933 224.924 29.968H223.532C223.468 29.4453 223.249 29.0187 222.876 28.688C222.513 28.3467 222.022 28.176 221.404 28.176C220.881 28.176 220.47 28.304 220.172 28.56C219.884 28.8053 219.74 29.1413 219.74 29.568C219.74 29.888 219.836 30.1493 220.028 30.352C220.23 30.544 220.476 30.6933 220.764 30.8C221.062 30.896 221.468 31.0027 221.98 31.12C222.63 31.2693 223.153 31.424 223.548 31.584C223.953 31.7333 224.294 31.9787 224.572 32.32C224.86 32.6613 225.004 33.12 225.004 33.696C225.004 34.4107 224.732 34.992 224.188 35.44C223.654 35.888 222.94 36.112 222.044 36.112C220.998 36.112 220.145 35.8613 219.484 35.36C218.822 34.8587 218.433 34.16 218.316 33.264H219.724C219.777 33.7973 220.006 34.2293 220.412 34.56C220.828 34.8907 221.372 35.056 222.044 35.056C222.545 35.056 222.934 34.928 223.212 34.672C223.5 34.416 223.644 34.08 223.644 33.664C223.644 33.3227 223.542 33.0507 223.34 32.848C223.137 32.6453 222.886 32.4907 222.588 32.384C222.289 32.2773 221.878 32.1653 221.356 32.048C220.705 31.8987 220.182 31.7493 219.788 31.6C219.404 31.4507 219.073 31.216 218.796 30.896C218.529 30.5653 218.396 30.1227 218.396 29.568C218.396 28.832 218.668 28.24 219.212 27.792C219.756 27.3333 220.497 27.104 221.436 27.104Z" fill="#BBBBBB"/>
<path d="M49.8906 21H30.1094C29.7847 21 29.4807 21.0798 29.2057 21.2114L39.9531 31.9589L42.362 29.6438C42.362 29.6438 42.3622 29.6436 42.3622 29.6435C42.3623 29.6434 42.3625 29.6433 42.3625 29.6433L50.7947 21.2116C50.5196 21.0799 50.2154 21 49.8906 21Z" fill="#E8E8E8"/>
<path d="M51.7889 22.2061L43.8537 30.1408L51.7886 38.0756C51.9202 37.8006 52 37.4966 52 37.1719V23.1094C52 22.7849 51.9204 22.481 51.7889 22.2061Z" fill="#E8E8E8"/>
<path d="M28.2114 22.2057C28.0798 22.4807 28 22.7847 28 23.1094V37.1719C28 37.4964 28.0797 37.8004 28.2112 38.0754L36.1464 30.1406L28.2114 22.2057Z" fill="#E8E8E8"/>
<path d="M42.8594 31.135L40.4503 33.4503C40.3129 33.5876 40.133 33.6563 39.9532 33.6563C39.7733 33.6563 39.5933 33.5876 39.456 33.4503L37.1406 31.1349L29.2053 39.0697C29.4804 39.2013 29.7846 39.2812 30.1094 39.2812H49.8906C50.2153 39.2812 50.5193 39.2014 50.7943 39.0698L42.8594 31.135Z" fill="#E8E8E8"/>
</g>
<defs>
<filter id="filter0_d_2_329" x="-42" y="-25" width="543" height="142" filterUnits="userSpaceOnUse" color-interpolation-filters="sRGB">
<feFlood flood-opacity="0" result="BackgroundImageFix"/>
<feColorMatrix in="SourceAlpha" type="matrix" values="0 0 0 0 0 0 0 0 0 0 0 0 0 0 0 0 0 0 127 0" result="hardAlpha"/>
<feOffset dy="17"/>
<feGaussianBlur stdDeviation="21"/>
<feColorMatrix type="matrix" values="0 0 0 0 0 0 0 0 0 0 0 0 0 0 0 0 0 0 0.12 0"/>
<feBlend mode="normal" in2="BackgroundImageFix" result="effect1_dropShadow_2_329"/>
<feBlend mode="normal" in="SourceGraphic" in2="effect1_dropShadow_2_329" result="shape"/>
</filter>
<clipPath id="clip0_2_329">
<rect width="459" height="58" fill="white"/>
</clipPath>
</defs>
</svg>
