<svg width="168" height="44" viewBox="0 0 168 44" fill="none" xmlns="http://www.w3.org/2000/svg">
<path d="M47.792 22.552C47.792 20.888 48.152 19.408 48.872 18.112C49.592 16.8 50.592 15.784 51.872 15.064C53.168 14.328 54.632 13.96 56.264 13.96C58.264 13.96 59.976 14.488 61.4 15.544C62.824 16.6 63.776 18.04 64.256 19.864H59.744C59.408 19.16 58.928 18.624 58.304 18.256C57.696 17.888 57 17.704 56.216 17.704C54.952 17.704 53.928 18.144 53.144 19.024C52.36 19.904 51.968 21.08 51.968 22.552C51.968 24.024 52.36 25.2 53.144 26.08C53.928 26.96 54.952 27.4 56.216 27.4C57 27.4 57.696 27.216 58.304 26.848C58.928 26.48 59.408 25.944 59.744 25.24H64.256C63.776 27.064 62.824 28.504 61.4 29.56C59.976 30.6 58.264 31.12 56.264 31.12C54.632 31.12 53.168 30.76 51.872 30.04C50.592 29.304 49.592 28.288 48.872 26.992C48.152 25.696 47.792 24.216 47.792 22.552ZM79.9933 17.608V31H75.8893V29.176C75.4733 29.768 74.9053 30.248 74.1853 30.616C73.4813 30.968 72.6973 31.144 71.8333 31.144C70.8093 31.144 69.9053 30.92 69.1213 30.472C68.3373 30.008 67.7293 29.344 67.2973 28.48C66.8653 27.616 66.6493 26.6 66.6493 25.432V17.608H70.7293V24.88C70.7293 25.776 70.9613 26.472 71.4253 26.968C71.8893 27.464 72.5133 27.712 73.2973 27.712C74.0973 27.712 74.7293 27.464 75.1933 26.968C75.6573 26.472 75.8893 25.776 75.8893 24.88V17.608H79.9933ZM90.4051 27.52V31H88.3171C86.8291 31 85.6691 30.64 84.8371 29.92C84.0051 29.184 83.5891 27.992 83.5891 26.344V21.016H81.9571V17.608H83.5891V14.344H87.6931V17.608H90.3811V21.016H87.6931V26.392C87.6931 26.792 87.7891 27.08 87.9811 27.256C88.1731 27.432 88.4931 27.52 88.9411 27.52H90.4051ZM98.7871 31.168C97.5551 31.168 96.4511 30.968 95.4751 30.568C94.4991 30.168 93.7151 29.576 93.1231 28.792C92.5471 28.008 92.2431 27.064 92.2111 25.96H96.5791C96.6431 26.584 96.8591 27.064 97.2271 27.4C97.5951 27.72 98.0751 27.88 98.6671 27.88C99.2751 27.88 99.7551 27.744 100.107 27.472C100.459 27.184 100.635 26.792 100.635 26.296C100.635 25.88 100.491 25.536 100.203 25.264C99.9311 24.992 99.5871 24.768 99.1711 24.592C98.7711 24.416 98.1951 24.216 97.4431 23.992C96.3551 23.656 95.4671 23.32 94.7791 22.984C94.0911 22.648 93.4991 22.152 93.0031 21.496C92.5071 20.84 92.2591 19.984 92.2591 18.928C92.2591 17.36 92.8271 16.136 93.9631 15.256C95.0991 14.36 96.5791 13.912 98.4031 13.912C100.259 13.912 101.755 14.36 102.891 15.256C104.027 16.136 104.635 17.368 104.715 18.952H100.275C100.243 18.408 100.043 17.984 99.6751 17.68C99.3071 17.36 98.8351 17.2 98.2591 17.2C97.7631 17.2 97.3631 17.336 97.0591 17.608C96.7551 17.864 96.6031 18.24 96.6031 18.736C96.6031 19.28 96.8591 19.704 97.3711 20.008C97.8831 20.312 98.6831 20.64 99.7711 20.992C100.859 21.36 101.739 21.712 102.411 22.048C103.099 22.384 103.691 22.872 104.187 23.512C104.683 24.152 104.931 24.976 104.931 25.984C104.931 26.944 104.683 27.816 104.187 28.6C103.707 29.384 103.003 30.008 102.075 30.472C101.147 30.936 100.051 31.168 98.7871 31.168ZM111.561 19.504C111.961 18.88 112.513 18.376 113.217 17.992C113.921 17.608 114.745 17.416 115.689 17.416C116.793 17.416 117.793 17.696 118.689 18.256C119.585 18.816 120.289 19.616 120.801 20.656C121.329 21.696 121.593 22.904 121.593 24.28C121.593 25.656 121.329 26.872 120.801 27.928C120.289 28.968 119.585 29.776 118.689 30.352C117.793 30.912 116.793 31.192 115.689 31.192C114.761 31.192 113.937 31 113.217 30.616C112.513 30.232 111.961 29.736 111.561 29.128V37.384H107.457V17.608H111.561V19.504ZM117.417 24.28C117.417 23.256 117.129 22.456 116.553 21.88C115.993 21.288 115.297 20.992 114.465 20.992C113.649 20.992 112.953 21.288 112.377 21.88C111.817 22.472 111.537 23.28 111.537 24.304C111.537 25.328 111.817 26.136 112.377 26.728C112.953 27.32 113.649 27.616 114.465 27.616C115.281 27.616 115.977 27.32 116.553 26.728C117.129 26.12 117.417 25.304 117.417 24.28ZM122.93 24.28C122.93 22.904 123.186 21.696 123.698 20.656C124.226 19.616 124.938 18.816 125.834 18.256C126.73 17.696 127.73 17.416 128.834 17.416C129.778 17.416 130.602 17.608 131.306 17.992C132.026 18.376 132.578 18.88 132.962 19.504V17.608H137.066V31H132.962V29.104C132.562 29.728 132.002 30.232 131.282 30.616C130.578 31 129.754 31.192 128.81 31.192C127.722 31.192 126.73 30.912 125.834 30.352C124.938 29.776 124.226 28.968 123.698 27.928C123.186 26.872 122.93 25.656 122.93 24.28ZM132.962 24.304C132.962 23.28 132.674 22.472 132.098 21.88C131.538 21.288 130.85 20.992 130.034 20.992C129.218 20.992 128.522 21.288 127.946 21.88C127.386 22.456 127.106 23.256 127.106 24.28C127.106 25.304 127.386 26.12 127.946 26.728C128.522 27.32 129.218 27.616 130.034 27.616C130.85 27.616 131.538 27.32 132.098 26.728C132.674 26.136 132.962 25.328 132.962 24.304ZM139.219 24.304C139.219 22.912 139.499 21.696 140.059 20.656C140.635 19.616 141.427 18.816 142.435 18.256C143.459 17.696 144.627 17.416 145.939 17.416C147.619 17.416 149.019 17.856 150.139 18.736C151.275 19.616 152.019 20.856 152.371 22.456H148.003C147.635 21.432 146.923 20.92 145.867 20.92C145.115 20.92 144.515 21.216 144.067 21.808C143.619 22.384 143.395 23.216 143.395 24.304C143.395 25.392 143.619 26.232 144.067 26.824C144.515 27.4 145.115 27.688 145.867 27.688C146.923 27.688 147.635 27.176 148.003 26.152H152.371C152.019 27.72 151.275 28.952 150.139 29.848C149.003 30.744 147.603 31.192 145.939 31.192C144.627 31.192 143.459 30.912 142.435 30.352C141.427 29.792 140.635 28.992 140.059 27.952C139.499 26.912 139.219 25.696 139.219 24.304ZM167.19 24.088C167.19 24.472 167.166 24.872 167.118 25.288H157.83C157.894 26.12 158.158 26.76 158.622 27.208C159.102 27.64 159.686 27.856 160.374 27.856C161.398 27.856 162.11 27.424 162.51 26.56H166.878C166.654 27.44 166.246 28.232 165.654 28.936C165.078 29.64 164.35 30.192 163.47 30.592C162.59 30.992 161.606 31.192 160.518 31.192C159.206 31.192 158.038 30.912 157.014 30.352C155.99 29.792 155.19 28.992 154.614 27.952C154.038 26.912 153.75 25.696 153.75 24.304C153.75 22.912 154.03 21.696 154.59 20.656C155.166 19.616 155.966 18.816 156.99 18.256C158.014 17.696 159.19 17.416 160.518 17.416C161.814 17.416 162.966 17.688 163.974 18.232C164.982 18.776 165.766 19.552 166.326 20.56C166.902 21.568 167.19 22.744 167.19 24.088ZM162.99 23.008C162.99 22.304 162.75 21.744 162.27 21.328C161.79 20.912 161.19 20.704 160.47 20.704C159.782 20.704 159.198 20.904 158.718 21.304C158.254 21.704 157.966 22.272 157.854 23.008H162.99Z" fill="#323232"/>
<path fill-rule="evenodd" clip-rule="evenodd" d="M22 22.0001L32.5987 11.3855C26.7788 5.57428 17.209 5.57784 11.3934 11.3935C5.57477 17.2121 5.57477 26.788 11.3934 32.6067C17.212 38.4253 26.788 38.4253 32.6066 32.6067L22 22.0001Z" fill="#58BEBF"/>
</svg>
